<svg xmlns="http://www.w3.org/2000/svg"  viewBox="0 0 32 32" width="32px" height="32px"><path fill="#ffffff" d="M 7 7 L 7 9 L 9 9 L 9 7 L 7 7 z M 9 9 L 9 11 L 11 11 L 11 9 L 9 9 z M 11 11 L 11 13 L 13 13 L 13 11 L 11 11 z M 13 13 L 13 15 L 15 15 L 15 13 L 13 13 z M 15 15 L 15 17 L 17 17 L 17 15 L 15 15 z M 17 15 L 19 15 L 19 13 L 17 13 L 17 15 z M 19 13 L 21 13 L 21 11 L 19 11 L 19 13 z M 21 11 L 23 11 L 23 9 L 21 9 L 21 11 z M 23 9 L 25 9 L 25 7 L 23 7 L 23 9 z M 17 17 L 17 19 L 19 19 L 19 17 L 17 17 z M 19 19 L 19 21 L 21 21 L 21 19 L 19 19 z M 21 21 L 21 23 L 23 23 L 23 21 L 21 21 z M 23 23 L 23 25 L 25 25 L 25 23 L 23 23 z M 15 17 L 13 17 L 13 19 L 15 19 L 15 17 z M 13 19 L 11 19 L 11 21 L 13 21 L 13 19 z M 11 21 L 9 21 L 9 23 L 11 23 L 11 21 z M 9 23 L 7 23 L 7 25 L 9 25 L 9 23 z"/></svg>